{
  "accessors": [
    {
      "bufferView": 2,
      "componentType": 5126,
      "count": 65532,
      "max": [
        3.847722053527832,
        -0.80255097150802612,
        1.3068389892578125
      ],
      "min": [
        -3.8770079612731934,
        -8.8868780136108398,
        -3.4347460269927979
      ],
      "type": "VEC3"
    },
    {
      "bufferView": 2,
      "byteOffset": 786384,
      "componentType": 5126,
      "count": 65532,
      "max": [
        0.99997961521148682,
        0.9915701150894165,
        0.99994885921478271
      ],
      "min": [
        -0.999991774559021,
        -0.9999961256980896,
        -0.9999997615814209
      ],
      "type": "VEC3"
    },
    {
      "bufferView": 3,
      "componentType": 5126,
      "count": 65532,
      "max": [
        0.99778568744659424,
        0.94893968105316162,
        0.99991810321807861,
        1
      ],
      "min": [
        -0.99922835826873779,
        -0.99931508302688599,
        -1,
        -1
      ],
      "type": "VEC4"
    },
    {
      "bufferView": 1,
      "componentType": 5126,
      "count": 65532,
      "max": [
        2110.48876953125,
        0.99956601858139038
      ],
      "min": [
        0.00036400000681169331,
        -2730.94091796875
      ],
      "type": "VEC2"
    },
    {
      "bufferView": 0,
      "componentType": 5125,
      "count": 335448,
      "max": [
        65531
      ],
      "min": [
        0
      ],
      "type": "SCALAR"
    },
    {
      "bufferView": 2,
      "byteOffset": 1572768,
      "componentType": 5126,
      "count": 65532,
      "max": [
        3.8603639602661133,
        -0.79537898302078247,
        2.8948891162872314
      ],
      "min": [
        -3.8397378921508789,
        -8.8868780136108398,
        -3.4352610111236572
      ],
      "type": "VEC3"
    },
    {
      "bufferView": 2,
      "byteOffset": 2359152,
      "componentType": 5126,
      "count": 65532,
      "max": [
        0.99997961521148682,
        0.99164885282516479,
        0.99999845027923584
      ],
      "min": [
        -0.99993950128555298,
        -0.99996566772460938,
        -0.99996578693389893
      ],
      "type": "VEC3"
    },
    {
      "bufferView": 3,
      "byteOffset": 1048512,
      "componentType": 5126,
      "count": 65532,
      "max": [
        0.99911481142044067,
        0.94893968105316162,
        0.9999995231628418,
        1
      ],
      "min": [
        -0.99947744607925415,
        -0.99996209144592285,
        -0.99999743700027466,
        -1
      ],
      "type": "VEC4"
    },
    {
      "bufferView": 1,
      "byteOffset": 524256,
      "componentType": 5126,
      "count": 65532,
      "max": [
        2381.0185546875,
        0.99964398145675659
      ],
      "min": [
        -3.0247728824615479,
        -2528.296630859375
      ],
      "type": "VEC2"
    },
    {
      "bufferView": 0,
      "byteOffset": 1341792,
      "componentType": 5125,
      "count": 288912,
      "max": [
        65531
      ],
      "min": [
        0
      ],
      "type": "SCALAR"
    },
    {
      "bufferView": 2,
      "byteOffset": 3145536,
      "componentType": 5126,
      "count": 5167,
      "max": [
        3.8389921188354492,
        -0.91726201772689819,
        0.76248401403427124
      ],
      "min": [
        -3.8770079612731934,
        -8.874659538269043,
        -3.2368578910827637
      ],
      "type": "VEC3"
    },
    {
      "bufferView": 2,
      "byteOffset": 3207540,
      "componentType": 5126,
      "count": 5167,
      "max": [
        0.99995464086532593,
        0.9915584921836853,
        0.99972712993621826
      ],
      "min": [
        -0.99910855293273926,
        -0.99998736381530762,
        -0.99985021352767944
      ],
      "type": "VEC3"
    },
    {
      "bufferView": 3,
      "byteOffset": 2097024,
      "componentType": 5126,
      "count": 5167,
      "max": [
        0.9934425950050354,
        0.71565335988998413,
        0.99988788366317749,
        1
      ],
      "min": [
        -0.99949014186859131,
        -0.99970227479934692,
        -0.99855208396911621,
        -1
      ],
      "type": "VEC4"
    },
    {
      "bufferView": 1,
      "byteOffset": 1048512,
      "componentType": 5126,
      "count": 5167,
      "max": [
        2216.028564453125,
        0.99963998794555664
      ],
      "min": [
        0.00011000000085914508,
        -2327.738037109375
      ],
      "type": "VEC2"
    },
    {
      "bufferView": 0,
      "byteOffset": 2497440,
      "componentType": 5125,
      "count": 10995,
      "max": [
        5166
      ],
      "min": [
        0
      ],
      "type": "SCALAR"
    }
  ],
  "asset": {
    "extras": {
      "author": "vodzurk (https://sketchfab.com/vodzurk)",
      "license": "CC-BY-4.0 (http://creativecommons.org/licenses/by/4.0/)",
      "source": "https://sketchfab.com/models/91b66666487140f586dcf16de0ac54b4",
      "title": "Frog Garden Statue"
    },
    "generator": "Sketchfab-3.18.6",
    "version": "2.0"
  },
  "bufferViews": [
    {
      "buffer": 0,
      "byteLength": 2541420,
      "byteOffset": 0,
      "name": "floatBufferViews",
      "target": 34963
    },
    {
      "buffer": 0,
      "byteLength": 1089848,
      "byteOffset": 2541420,
      "byteStride": 8,
      "name": "floatBufferViews",
      "target": 34962
    },
    {
      "buffer": 0,
      "byteLength": 3269544,
      "byteOffset": 3631268,
      "byteStride": 12,
      "name": "floatBufferViews",
      "target": 34962
    },
    {
      "buffer": 0,
      "byteLength": 2179696,
      "byteOffset": 6900812,
      "byteStride": 16,
      "name": "floatBufferViews",
      "target": 34962
    }
  ],
  "buffers": [
    {
      "byteLength": 9080508,
      "uri": "scene.bin"
    }
  ],
  "images": [
    {
      "uri": "textures/material_0_baseColor.jpeg"
    }
  ],
  "materials": [
    {
      "doubleSided": true,
      "emissiveFactor": [
        0,
        0,
        0
      ],
      "name": "material_0",
      "pbrMetallicRoughness": {
        "baseColorFactor": [
          1,
          1,
          1,
          1
        ],
        "baseColorTexture": {
          "index": 0,
          "texCoord": 0
        },
        "metallicFactor": 0,
        "roughnessFactor": 0.59999999999999998
      }
    }
  ],
  "meshes": [
    {
      "primitives": [
        {
          "attributes": {
            "NORMAL": 1,
            "POSITION": 0,
            "TANGENT": 2,
            "TEXCOORD_0": 3
          },
          "indices": 4,
          "material": 0,
          "mode": 4
        }
      ]
    },
    {
      "primitives": [
        {
          "attributes": {
            "NORMAL": 6,
            "POSITION": 5,
            "TANGENT": 7,
            "TEXCOORD_0": 8
          },
          "indices": 9,
          "material": 0,
          "mode": 4
        }
      ]
    },
    {
      "primitives": [
        {
          "attributes": {
            "NORMAL": 11,
            "POSITION": 10,
            "TANGENT": 12,
            "TEXCOORD_0": 13
          },
          "indices": 14,
          "material": 0,
          "mode": 4
        }
      ]
    }
  ],
  "nodes": [
    {
      "children": [
        1
      ],
      "name": "RootNode (gltf orientation matrix)",
      "rotation": [
        -0.70710678118654746,
        -0,
        -0,
        0.70710678118654757
      ]
    },
    {
      "children": [
        2
      ],
      "matrix": [
        1,
        0,
        0,
        0,
        0,
        0,
        -1,
        0,
        0,
        1,
        0,
        0,
        0,
        -4.570948600769043,
        -5.111332893371582,
        1
      ],
      "name": "RootNode (model correction matrix)"
    },
    {
      "children": [
        3,
        4,
        5
      ],
      "name": "sketchfabTemp.obj.cleaner.gles"
    },
    {
      "mesh": 0,
      "name": ""
    },
    {
      "mesh": 1,
      "name": ""
    },
    {
      "mesh": 2,
      "name": ""
    }
  ],
  "samplers": [
    {
      "magFilter": 9729,
      "minFilter": 9987,
      "wrapS": 10497,
      "wrapT": 10497
    }
  ],
  "scene": 0,
  "scenes": [
    {
      "name": "OSG_Scene",
      "nodes": [
        0
      ]
    }
  ],
  "textures": [
    {
      "sampler": 0,
      "source": 0
    }
  ]
}

