{
  "accessors": [
    {
      "bufferView": 2,
      "componentType": 5126,
      "count": 1024,
      "max": [
        13652.5703125,
        6861.4697265625,
        7156.21337890625
      ],
      "min": [
        8852.599609375,
        1675.499755859375,
        16.558151245117188
      ],
      "type": "VEC3"
    },
    {
      "bufferView": 2,
      "byteOffset": 12288,
      "componentType": 5126,
      "count": 1024,
      "max": [
        0.99896889925003052,
        0.99971520900726318,
        0.99669623374938965
      ],
      "min": [
        -0.99751138687133789,
        -0.99977153539657593,
        -0.99844557046890259
      ],
      "type": "VEC3"
    },
    {
      "bufferView": 3,
      "componentType": 5126,
      "count": 1024,
      "max": [
        1,
        0.99984461069107056,
        0.9960702657699585,
        1
      ],
      "min": [
        -1,
        -0.99994564056396484,
        -0.99638360738754272,
        -1
      ],
      "type": "VEC4"
    },
    {
      "bufferView": 1,
      "componentType": 5126,
      "count": 1024,
      "max": [
        20.285999298095703,
        5.9329400062561035
      ],
      "min": [
        -5.7896599769592285,
        -5.8348898887634277
      ],
      "type": "VEC2"
    },
    {
      "bufferView": 0,
      "componentType": 5125,
      "count": 2364,
      "max": [
        1023
      ],
      "min": [
        0
      ],
      "type": "SCALAR"
    },
    {
      "bufferView": 2,
      "byteOffset": 24576,
      "componentType": 5126,
      "count": 1051,
      "max": [
        20909.76953125,
        6718.009765625,
        5836.353515625
      ],
      "min": [
        16523.669921875,
        2549.10986328125,
        44.54071044921875
      ],
      "type": "VEC3"
    },
    {
      "bufferView": 2,
      "byteOffset": 37188,
      "componentType": 5126,
      "count": 1051,
      "max": [
        0.99958938360214233,
        0.99952733516693115,
        0.99798911809921265
      ],
      "min": [
        -0.9982914924621582,
        -0.99973738193511963,
        -0.99814599752426147
      ],
      "type": "VEC3"
    },
    {
      "bufferView": 3,
      "byteOffset": 16384,
      "componentType": 5126,
      "count": 1051,
      "max": [
        0.9990883469581604,
        0.99991583824157715,
        0.99974459409713745,
        1
      ],
      "min": [
        -0.99987274408340454,
        -0.99909728765487671,
        -0.9994889497756958,
        -1
      ],
      "type": "VEC4"
    },
    {
      "bufferView": 1,
      "byteOffset": 8192,
      "componentType": 5126,
      "count": 1051,
      "max": [
        1.8351999521255493,
        3.8412001132965088
      ],
      "min": [
        -2.0539000034332275,
        0.80110001564025879
      ],
      "type": "VEC2"
    },
    {
      "bufferView": 0,
      "byteOffset": 9456,
      "componentType": 5125,
      "count": 4098,
      "max": [
        1050
      ],
      "min": [
        0
      ],
      "type": "SCALAR"
    },
    {
      "bufferView": 2,
      "byteOffset": 49800,
      "componentType": 5126,
      "count": 9999,
      "max": [
        28883.0703125,
        6961.01953125,
        6969.923828125
      ],
      "min": [
        22756.37109375,
        784.169921875,
        813.36761474609375
      ],
      "type": "VEC3"
    },
    {
      "bufferView": 2,
      "byteOffset": 169788,
      "componentType": 5126,
      "count": 9999,
      "max": [
        0.99938774108886719,
        0.99975466728210449,
        0.99991148710250854
      ],
      "min": [
        -0.99970608949661255,
        -0.99974232912063599,
        -0.99976438283920288
      ],
      "type": "VEC3"
    },
    {
      "bufferView": 3,
      "byteOffset": 33200,
      "componentType": 5126,
      "count": 9999,
      "max": [
        0.99977225065231323,
        0.99954265356063843,
        0.99977773427963257,
        1
      ],
      "min": [
        -0.99998992681503296,
        -0.99996906518936157,
        -0.99989157915115356,
        -1
      ],
      "type": "VEC4"
    },
    {
      "bufferView": 1,
      "byteOffset": 16600,
      "componentType": 5126,
      "count": 9999,
      "max": [
        1.0091999769210815,
        1
      ],
      "min": [
        -2.842169926600864e-14,
        9.9999997473787516e-05
      ],
      "type": "VEC2"
    },
    {
      "bufferView": 0,
      "byteOffset": 25848,
      "componentType": 5125,
      "count": 30168,
      "max": [
        9998
      ],
      "min": [
        0
      ],
      "type": "SCALAR"
    },
    {
      "bufferView": 2,
      "byteOffset": 289776,
      "componentType": 5126,
      "count": 2654,
      "max": [
        28541.0703125,
        6374.7197265625,
        6433.74365234375
      ],
      "min": [
        23240.671875,
        1129.309814453125,
        1082.41357421875
      ],
      "type": "VEC3"
    },
    {
      "bufferView": 2,
      "byteOffset": 321624,
      "componentType": 5126,
      "count": 2654,
      "max": [
        0.99988675117492676,
        0.99967747926712036,
        0.99981933832168579
      ],
      "min": [
        -0.99959850311279297,
        -0.99869310855865479,
        -0.97832751274108887
      ],
      "type": "VEC3"
    },
    {
      "bufferView": 3,
      "byteOffset": 193184,
      "componentType": 5126,
      "count": 2654,
      "max": [
        0.99916702508926392,
        0.99872064590454102,
        0.99960809946060181,
        1
      ],
      "min": [
        -0.99988847970962524,
        -0.99926513433456421,
        -0.9856298565864563,
        -1
      ],
      "type": "VEC4"
    },
    {
      "bufferView": 1,
      "byteOffset": 96592,
      "componentType": 5126,
      "count": 2654,
      "max": [
        1.0091999769210815,
        1
      ],
      "min": [
        -2.842169926600864e-14,
        9.9999997473787516e-05
      ],
      "type": "VEC2"
    },
    {
      "bufferView": 0,
      "byteOffset": 146520,
      "componentType": 5125,
      "count": 8175,
      "max": [
        2653
      ],
      "min": [
        0
      ],
      "type": "SCALAR"
    },
    {
      "bufferView": 2,
      "byteOffset": 353472,
      "componentType": 5126,
      "count": 1774,
      "max": [
        27477.37109375,
        5277.81494140625,
        5812.0537109375
      ],
      "min": [
        24531.671875,
        2479.83984375,
        44.539710998535156
      ],
      "type": "VEC3"
    },
    {
      "bufferView": 2,
      "byteOffset": 374760,
      "componentType": 5126,
      "count": 1774,
      "max": [
        0.9990355372428894,
        0.99930888414382935,
        0.99999445676803589
      ],
      "min": [
        -0.9991534948348999,
        -0.99885457754135132,
        -0.9999079704284668
      ],
      "type": "VEC3"
    },
    {
      "bufferView": 3,
      "byteOffset": 235648,
      "componentType": 5126,
      "count": 1774,
      "max": [
        0.99999934434890747,
        0.99999505281448364,
        0.76292264461517334,
        1
      ],
      "min": [
        -0.99999743700027466,
        -0.99999535083770752,
        -0.68375402688980103,
        -1
      ],
      "type": "VEC4"
    },
    {
      "bufferView": 1,
      "byteOffset": 117824,
      "componentType": 5126,
      "count": 1774,
      "max": [
        0.99949997663497925,
        1.4192999601364136
      ],
      "min": [
        0.00050000002374872565,
        -0.41929998993873596
      ],
      "type": "VEC2"
    },
    {
      "bufferView": 0,
      "byteOffset": 179220,
      "componentType": 5125,
      "count": 4020,
      "max": [
        1773
      ],
      "min": [
        0
      ],
      "type": "SCALAR"
    },
    {
      "bufferView": 2,
      "byteOffset": 396048,
      "componentType": 5126,
      "count": 8734,
      "max": [
        5631.6904296875,
        6909.080078125,
        4869.00341796875
      ],
      "min": [
        0,
        1559.4296875,
        462.2086181640625
      ],
      "type": "VEC3"
    },
    {
      "bufferView": 2,
      "byteOffset": 500856,
      "componentType": 5126,
      "count": 8734,
      "max": [
        0.99981045722961426,
        0.99963974952697754,
        0.99981611967086792
      ],
      "min": [
        -0.99885326623916626,
        -0.99885237216949463,
        -0.9977906346321106
      ],
      "type": "VEC3"
    },
    {
      "bufferView": 3,
      "byteOffset": 264032,
      "componentType": 5126,
      "count": 8734,
      "max": [
        0.99978172779083252,
        0.99982869625091553,
        0.99901461601257324,
        1
      ],
      "min": [
        -0.99971014261245728,
        -0.99963879585266113,
        -0.99844264984130859,
        1
      ],
      "type": "VEC4"
    },
    {
      "bufferView": 1,
      "byteOffset": 132016,
      "componentType": 5126,
      "count": 8734,
      "max": [
        1,
        1.0122699737548828
      ],
      "min": [
        -0.00012705700646620244,
        -0.017759999260306358
      ],
      "type": "VEC2"
    },
    {
      "bufferView": 0,
      "byteOffset": 195300,
      "componentType": 5125,
      "count": 22104,
      "max": [
        8733
      ],
      "min": [
        0
      ],
      "type": "SCALAR"
    },
    {
      "bufferView": 2,
      "byteOffset": 605664,
      "componentType": 5126,
      "count": 1902,
      "max": [
        4633.1298828125,
        5867.099609375,
        4219.3134765625
      ],
      "min": [
        977.0001220703125,
        2773.44970703125,
        0
      ],
      "type": "VEC3"
    },
    {
      "bufferView": 2,
      "byteOffset": 628488,
      "componentType": 5126,
      "count": 1902,
      "max": [
        0.99722766876220703,
        0.99640864133834839,
        0.99067002534866333
      ],
      "min": [
        -0.99822300672531128,
        -0.99595862627029419,
        -0.99931198358535767
      ],
      "type": "VEC3"
    },
    {
      "bufferView": 3,
      "byteOffset": 403776,
      "componentType": 5126,
      "count": 1902,
      "max": [
        0.99991291761398315,
        0.99979257583618164,
        0.99698776006698608,
        1
      ],
      "min": [
        -0.99999260902404785,
        -0.9999624490737915,
        -0.99895751476287842,
        -1
      ],
      "type": "VEC4"
    },
    {
      "bufferView": 1,
      "byteOffset": 201888,
      "componentType": 5126,
      "count": 1902,
      "max": [
        7.5699000358581543,
        6.8582100868225098
      ],
      "min": [
        -3.5114200115203857,
        -6.9222497940063477
      ],
      "type": "VEC2"
    },
    {
      "bufferView": 0,
      "byteOffset": 283716,
      "componentType": 5125,
      "count": 4422,
      "max": [
        1901
      ],
      "min": [
        0
      ],
      "type": "SCALAR"
    },
    {
      "bufferView": 2,
      "byteOffset": 651312,
      "componentType": 5126,
      "count": 4249,
      "max": [
        14853.2705078125,
        8559.08984375,
        9425.4833984375
      ],
      "min": [
        6864.08984375,
        0,
        1912.5836181640625
      ],
      "type": "VEC3"
    },
    {
      "bufferView": 2,
      "byteOffset": 702300,
      "componentType": 5126,
      "count": 4249,
      "max": [
        0.99965614080429077,
        0.99879413843154907,
        0.99931889772415161
      ],
      "min": [
        -0.99993890523910522,
        -0.99961525201797485,
        -0.82502901554107666
      ],
      "type": "VEC3"
    },
    {
      "bufferView": 3,
      "byteOffset": 434208,
      "componentType": 5126,
      "count": 4249,
      "max": [
        0.99959546327590942,
        0.99950730800628662,
        0.99973362684249878,
        1
      ],
      "min": [
        -0.99812859296798706,
        -0.99966776371002197,
        -0.99999374151229858,
        1
      ],
      "type": "VEC4"
    },
    {
      "bufferView": 1,
      "byteOffset": 217104,
      "componentType": 5126,
      "count": 4249,
      "max": [
        0.9908829927444458,
        0.99209398031234741
      ],
      "min": [
        -1.5543100110137326e-15,
        -1.5543100110137326e-15
      ],
      "type": "VEC2"
    },
    {
      "bufferView": 0,
      "byteOffset": 301404,
      "componentType": 5125,
      "count": 11562,
      "max": [
        4248
      ],
      "min": [
        0
      ],
      "type": "SCALAR"
    },
    {
      "bufferView": 2,
      "byteOffset": 753288,
      "componentType": 5126,
      "count": 9673,
      "max": [
        21745.671875,
        7662.080078125,
        6587.74365234375
      ],
      "min": [
        15691.4697265625,
        1324.10986328125,
        1143.1136474609375
      ],
      "type": "VEC3"
    },
    {
      "bufferView": 2,
      "byteOffset": 869364,
      "componentType": 5126,
      "count": 9673,
      "max": [
        0.99962902069091797,
        0.99928349256515503,
        0.99997735023498535
      ],
      "min": [
        -0.99987286329269409,
        -0.99938112497329712,
        -0.99952232837677002
      ],
      "type": "VEC3"
    },
    {
      "bufferView": 3,
      "byteOffset": 502192,
      "componentType": 5126,
      "count": 9673,
      "max": [
        0.99991476535797119,
        0.99933630228042603,
        0.99993550777435303,
        1
      ],
      "min": [
        -0.9979284405708313,
        -0.99971801042556763,
        -0.99897223711013794,
        -1
      ],
      "type": "VEC4"
    },
    {
      "bufferView": 1,
      "byteOffset": 251096,
      "componentType": 5126,
      "count": 9673,
      "max": [
        0.98519998788833618,
        0.99070000648498535
      ],
      "min": [
        -0.0043999999761581421,
        -0.001500000013038516
      ],
      "type": "VEC2"
    },
    {
      "bufferView": 0,
      "byteOffset": 347652,
      "componentType": 5125,
      "count": 26664,
      "max": [
        9672
      ],
      "min": [
        0
      ],
      "type": "SCALAR"
    }
  ],
  "asset": {
    "extras": {
      "author": "ztrztr (https://sketchfab.com/ztrztr)",
      "license": "CC-BY-4.0 (http://creativecommons.org/licenses/by/4.0/)",
      "source": "https://sketchfab.com/3d-models/midpoly-tree-pack-006-7c5f62bd3abc4f5a9621596cd5a13088",
      "title": "midpoly tree pack 006"
    },
    "generator": "Sketchfab-5.68.0",
    "version": "2.0"
  },
  "bufferViews": [
    {
      "buffer": 0,
      "byteLength": 454308,
      "byteOffset": 0,
      "name": "floatBufferViews",
      "target": 34963
    },
    {
      "buffer": 0,
      "byteLength": 328480,
      "byteOffset": 454308,
      "byteStride": 8,
      "name": "floatBufferViews",
      "target": 34962
    },
    {
      "buffer": 0,
      "byteLength": 985440,
      "byteOffset": 782788,
      "byteStride": 12,
      "name": "floatBufferViews",
      "target": 34962
    },
    {
      "buffer": 0,
      "byteLength": 656960,
      "byteOffset": 1768228,
      "byteStride": 16,
      "name": "floatBufferViews",
      "target": 34962
    }
  ],
  "buffers": [
    {
      "byteLength": 2425188,
      "uri": "scene.bin"
    }
  ],
  "images": [
    {
      "uri": "textures/AM113_007_Ulmus_baseColor.png"
    },
    {
      "uri": "textures/AM113_007_Ulmus_Bark_baseColor.jpeg"
    },
    {
      "uri": "textures/AM113_059_Staphyella_pinnata_baseColor.png"
    },
    {
      "uri": "textures/AM113_060_Staphyella_pinnata_Bark_baseColor.jpeg"
    },
    {
      "uri": "textures/AM113_062_Tilia_baseColor.png"
    },
    {
      "uri": "textures/AM113_062_Tilia_Bark_baseColor.jpeg"
    },
    {
      "uri": "textures/M_006_Quercur_Robur_baseColor.png"
    },
    {
      "uri": "textures/M_006_Quercur_Robur_Bark_baseColor.jpeg"
    }
  ],
  "materials": [
    {
      "alphaMode": "BLEND",
      "doubleSided": true,
      "emissiveFactor": [
        0,
        0,
        0
      ],
      "name": "AM113_007_Ulmus",
      "pbrMetallicRoughness": {
        "baseColorFactor": [
          1,
          1,
          1,
          1
        ],
        "baseColorTexture": {
          "index": 0,
          "texCoord": 0
        },
        "metallicFactor": 0,
        "roughnessFactor": 1
      }
    },
    {
      "doubleSided": true,
      "emissiveFactor": [
        0,
        0,
        0
      ],
      "name": "AM113_007_Ulmus_Bark",
      "pbrMetallicRoughness": {
        "baseColorFactor": [
          1,
          1,
          1,
          1
        ],
        "baseColorTexture": {
          "index": 1,
          "texCoord": 0
        },
        "metallicFactor": 0,
        "roughnessFactor": 1
      }
    },
    {
      "alphaMode": "BLEND",
      "doubleSided": true,
      "emissiveFactor": [
        0,
        0,
        0
      ],
      "name": "AM113_059_Staphyella_pinnata",
      "pbrMetallicRoughness": {
        "baseColorFactor": [
          1,
          1,
          1,
          1
        ],
        "baseColorTexture": {
          "index": 2,
          "texCoord": 0
        },
        "metallicFactor": 0,
        "roughnessFactor": 1
      }
    },
    {
      "doubleSided": true,
      "emissiveFactor": [
        0,
        0,
        0
      ],
      "name": "AM113_060_Staphyella_pinnata_Bark",
      "pbrMetallicRoughness": {
        "baseColorFactor": [
          1,
          1,
          1,
          1
        ],
        "baseColorTexture": {
          "index": 3,
          "texCoord": 0
        },
        "metallicFactor": 0,
        "roughnessFactor": 1
      }
    },
    {
      "alphaMode": "BLEND",
      "doubleSided": true,
      "emissiveFactor": [
        0,
        0,
        0
      ],
      "name": "AM113_062_Tilia",
      "pbrMetallicRoughness": {
        "baseColorFactor": [
          1,
          1,
          1,
          1
        ],
        "baseColorTexture": {
          "index": 4,
          "texCoord": 0
        },
        "metallicFactor": 0,
        "roughnessFactor": 1
      }
    },
    {
      "doubleSided": true,
      "emissiveFactor": [
        0,
        0,
        0
      ],
      "name": "AM113_062_Tilia_Bark",
      "pbrMetallicRoughness": {
        "baseColorFactor": [
          1,
          1,
          1,
          1
        ],
        "baseColorTexture": {
          "index": 5,
          "texCoord": 0
        },
        "metallicFactor": 0,
        "roughnessFactor": 1
      }
    },
    {
      "alphaMode": "BLEND",
      "doubleSided": true,
      "emissiveFactor": [
        0,
        0,
        0
      ],
      "name": "M_006_Quercur_Robur",
      "pbrMetallicRoughness": {
        "baseColorFactor": [
          1,
          1,
          1,
          1
        ],
        "baseColorTexture": {
          "index": 6,
          "texCoord": 0
        },
        "metallicFactor": 0,
        "roughnessFactor": 1
      }
    },
    {
      "doubleSided": true,
      "emissiveFactor": [
        0,
        0,
        0
      ],
      "name": "M_006_Quercur_Robur_Bark",
      "pbrMetallicRoughness": {
        "baseColorFactor": [
          1,
          1,
          1,
          1
        ],
        "baseColorTexture": {
          "index": 7,
          "texCoord": 0
        },
        "metallicFactor": 0,
        "roughnessFactor": 1
      }
    }
  ],
  "meshes": [
    {
      "primitives": [
        {
          "attributes": {
            "NORMAL": 1,
            "POSITION": 0,
            "TANGENT": 2,
            "TEXCOORD_0": 3
          },
          "indices": 4,
          "material": 5,
          "mode": 4
        }
      ]
    },
    {
      "primitives": [
        {
          "attributes": {
            "NORMAL": 6,
            "POSITION": 5,
            "TANGENT": 7,
            "TEXCOORD_0": 8
          },
          "indices": 9,
          "material": 7,
          "mode": 4
        }
      ]
    },
    {
      "primitives": [
        {
          "attributes": {
            "NORMAL": 11,
            "POSITION": 10,
            "TANGENT": 12,
            "TEXCOORD_0": 13
          },
          "indices": 14,
          "material": 0,
          "mode": 4
        }
      ]
    },
    {
      "primitives": [
        {
          "attributes": {
            "NORMAL": 16,
            "POSITION": 15,
            "TANGENT": 17,
            "TEXCOORD_0": 18
          },
          "indices": 19,
          "material": 0,
          "mode": 4
        }
      ]
    },
    {
      "primitives": [
        {
          "attributes": {
            "NORMAL": 21,
            "POSITION": 20,
            "TANGENT": 22,
            "TEXCOORD_0": 23
          },
          "indices": 24,
          "material": 1,
          "mode": 4
        }
      ]
    },
    {
      "primitives": [
        {
          "attributes": {
            "NORMAL": 26,
            "POSITION": 25,
            "TANGENT": 27,
            "TEXCOORD_0": 28
          },
          "indices": 29,
          "material": 2,
          "mode": 4
        }
      ]
    },
    {
      "primitives": [
        {
          "attributes": {
            "NORMAL": 31,
            "POSITION": 30,
            "TANGENT": 32,
            "TEXCOORD_0": 33
          },
          "indices": 34,
          "material": 3,
          "mode": 4
        }
      ]
    },
    {
      "primitives": [
        {
          "attributes": {
            "NORMAL": 36,
            "POSITION": 35,
            "TANGENT": 37,
            "TEXCOORD_0": 38
          },
          "indices": 39,
          "material": 4,
          "mode": 4
        }
      ]
    },
    {
      "primitives": [
        {
          "attributes": {
            "NORMAL": 41,
            "POSITION": 40,
            "TANGENT": 42,
            "TEXCOORD_0": 43
          },
          "indices": 44,
          "material": 6,
          "mode": 4
        }
      ]
    }
  ],
  "nodes": [
    {
      "children": [
        1
      ],
      "name": "RootNode (gltf orientation matrix)",
      "rotation": [
        -0.70710678118654746,
        -0,
        -0,
        0.70710678118654757
      ]
    },
    {
      "children": [
        2
      ],
      "name": "RootNode (model correction matrix)"
    },
    {
      "children": [
        3
      ],
      "matrix": [
        1,
        0,
        0,
        0,
        0,
        1,
        0,
        0,
        0,
        0,
        1,
        0,
        -2894.3701171875,
        -4279.5498046875,
        -8.9536104202270508,
        1
      ],
      "name": "skfb_offset"
    },
    {
      "children": [
        4,
        5,
        6,
        7,
        8,
        9,
        10,
        11,
        12
      ],
      "name": ""
    },
    {
      "mesh": 0,
      "name": ""
    },
    {
      "mesh": 1,
      "name": ""
    },
    {
      "mesh": 2,
      "name": ""
    },
    {
      "mesh": 3,
      "name": ""
    },
    {
      "mesh": 4,
      "name": ""
    },
    {
      "mesh": 5,
      "name": ""
    },
    {
      "mesh": 6,
      "name": ""
    },
    {
      "mesh": 7,
      "name": ""
    },
    {
      "mesh": 8,
      "name": ""
    }
  ],
  "samplers": [
    {
      "magFilter": 9729,
      "minFilter": 9987,
      "wrapS": 10497,
      "wrapT": 10497
    }
  ],
  "scene": 0,
  "scenes": [
    {
      "name": "OSG_Scene",
      "nodes": [
        0
      ]
    }
  ],
  "textures": [
    {
      "sampler": 0,
      "source": 0
    },
    {
      "sampler": 0,
      "source": 1
    },
    {
      "sampler": 0,
      "source": 2
    },
    {
      "sampler": 0,
      "source": 3
    },
    {
      "sampler": 0,
      "source": 4
    },
    {
      "sampler": 0,
      "source": 5
    },
    {
      "sampler": 0,
      "source": 6
    },
    {
      "sampler": 0,
      "source": 7
    }
  ]
}

