{
  "accessors": [
    {
      "bufferView": 2,
      "componentType": 5126,
      "count": 39535,
      "max": [
        87.211677551269531,
        78.520095825195312,
        99.033432006835938
      ],
      "min": [
        -82.495613098144531,
        -78.520095825195312,
        -98.506179809570312
      ],
      "type": "VEC3"
    },
    {
      "bufferView": 2,
      "byteOffset": 474420,
      "componentType": 5126,
      "count": 39535,
      "max": [
        1,
        1,
        1
      ],
      "min": [
        -1,
        -1,
        -1
      ],
      "type": "VEC3"
    },
    {
      "bufferView": 3,
      "componentType": 5126,
      "count": 39535,
      "max": [
        1,
        1,
        1,
        1
      ],
      "min": [
        -1,
        -1,
        -1,
        -1
      ],
      "type": "VEC4"
    },
    {
      "bufferView": 1,
      "componentType": 5126,
      "count": 39535,
      "max": [
        0.99686998128890991,
        0.99800002574920654
      ],
      "min": [
        0.0020000000949949026,
        0.0020000000949949026
      ],
      "type": "VEC2"
    },
    {
      "bufferView": 0,
      "componentType": 5125,
      "count": 177798,
      "max": [
        39534
      ],
      "min": [
        0
      ],
      "type": "SCALAR"
    },
    {
      "bufferView": 2,
      "byteOffset": 948840,
      "componentType": 5126,
      "count": 29561,
      "max": [
        87.759384155273438,
        80.751663208007812,
        88.943756103515625
      ],
      "min": [
        -87.401885986328125,
        31.541015625,
        -90.022499084472656
      ],
      "type": "VEC3"
    },
    {
      "bufferView": 2,
      "byteOffset": 1303572,
      "componentType": 5126,
      "count": 29561,
      "max": [
        0.99999994039535522,
        1,
        0.99999994039535522
      ],
      "min": [
        -0.97816383838653564,
        -0.060583010315895081,
        -1
      ],
      "type": "VEC3"
    },
    {
      "bufferView": 3,
      "byteOffset": 632560,
      "componentType": 5126,
      "count": 29561,
      "max": [
        0.99999994039535522,
        0.99999994039535522,
        1,
        1
      ],
      "min": [
        -0.99999994039535522,
        -0.99999994039535522,
        -1,
        -1
      ],
      "type": "VEC4"
    },
    {
      "bufferView": 1,
      "byteOffset": 316280,
      "componentType": 5126,
      "count": 29561,
      "max": [
        0.99465197324752808,
        0.99465197324752808
      ],
      "min": [
        0.0053480002097785473,
        0.0053480002097785473
      ],
      "type": "VEC2"
    },
    {
      "bufferView": 0,
      "byteOffset": 711192,
      "componentType": 5125,
      "count": 143142,
      "max": [
        29560
      ],
      "min": [
        0
      ],
      "type": "SCALAR"
    },
    {
      "bufferView": 2,
      "byteOffset": 1658304,
      "componentType": 5126,
      "count": 30152,
      "max": [
        87.732765197753906,
        80.711807250976562,
        88.943756103515625
      ],
      "min": [
        -87.401885986328125,
        31.536138534545898,
        -89.982597351074219
      ],
      "type": "VEC3"
    },
    {
      "bufferView": 2,
      "byteOffset": 2020128,
      "componentType": 5126,
      "count": 30152,
      "max": [
        1,
        1,
        1
      ],
      "min": [
        -0.99999994039535522,
        -0.9999992847442627,
        -0.99999994039535522
      ],
      "type": "VEC3"
    },
    {
      "bufferView": 3,
      "byteOffset": 1105536,
      "componentType": 5126,
      "count": 30152,
      "max": [
        0.99999988079071045,
        0.99999988079071045,
        1,
        1
      ],
      "min": [
        -0.99999988079071045,
        -0.99999994039535522,
        -1,
        -1
      ],
      "type": "VEC4"
    },
    {
      "bufferView": 1,
      "byteOffset": 552768,
      "componentType": 5126,
      "count": 30152,
      "max": [
        0.99465197324752808,
        0.99465197324752808
      ],
      "min": [
        0.0053480002097785473,
        0.0053480002097785473
      ],
      "type": "VEC2"
    },
    {
      "bufferView": 0,
      "byteOffset": 1283760,
      "componentType": 5125,
      "count": 146286,
      "max": [
        30151
      ],
      "min": [
        0
      ],
      "type": "SCALAR"
    }
  ],
  "asset": {
    "extras": {
      "author": "Francesco Coldesina (https://sketchfab.com/topfrank2013)",
      "license": "CC-BY-4.0 (http://creativecommons.org/licenses/by/4.0/)",
      "source": "https://sketchfab.com/models/ad07aa8e7a7243bfbfe546104aa41882",
      "title": "External Rocking Chair"
    },
    "generator": "Sketchfab-3.19.3",
    "version": "2.0"
  },
  "bufferViews": [
    {
      "buffer": 0,
      "byteLength": 1868904,
      "byteOffset": 0,
      "name": "floatBufferViews",
      "target": 34963
    },
    {
      "buffer": 0,
      "byteLength": 793984,
      "byteOffset": 1868904,
      "byteStride": 8,
      "name": "floatBufferViews",
      "target": 34962
    },
    {
      "buffer": 0,
      "byteLength": 2381952,
      "byteOffset": 2662888,
      "byteStride": 12,
      "name": "floatBufferViews",
      "target": 34962
    },
    {
      "buffer": 0,
      "byteLength": 1587968,
      "byteOffset": 5044840,
      "byteStride": 16,
      "name": "floatBufferViews",
      "target": 34962
    }
  ],
  "buffers": [
    {
      "byteLength": 6632808,
      "uri": "scene.bin"
    }
  ],
  "extensionsRequired": [
    "KHR_materials_pbrSpecularGlossiness"
  ],
  "extensionsUsed": [
    "KHR_materials_pbrSpecularGlossiness"
  ],
  "images": [
    {
      "uri": "textures/02___Default_diffuse.jpeg"
    },
    {
      "uri": "textures/02___Default_specularGlossiness.png"
    },
    {
      "uri": "textures/Tetto01_diffuse.jpeg"
    },
    {
      "uri": "textures/Tetto01_normal.png"
    },
    {
      "uri": "textures/wire_154154229_diffuse.jpeg"
    },
    {
      "uri": "textures/wire_154154229_normal.png"
    }
  ],
  "materials": [
    {
      "doubleSided": true,
      "emissiveFactor": [
        0,
        0,
        0
      ],
      "extensions": {
        "KHR_materials_pbrSpecularGlossiness": {
          "diffuseFactor": [
            1,
            1,
            1,
            1
          ],
          "diffuseTexture": {
            "index": 0,
            "texCoord": 0
          },
          "glossinessFactor": 1,
          "specularFactor": [
            1,
            1,
            1
          ],
          "specularGlossinessTexture": {
            "index": 1,
            "texCoord": 0
          }
        }
      },
      "name": "02___Default"
    },
    {
      "doubleSided": true,
      "emissiveFactor": [
        0,
        0,
        0
      ],
      "extensions": {
        "KHR_materials_pbrSpecularGlossiness": {
          "diffuseFactor": [
            1,
            1,
            1,
            1
          ],
          "diffuseTexture": {
            "index": 2,
            "texCoord": 0
          },
          "glossinessFactor": 0,
          "specularFactor": [
            0.050000000000000003,
            0.050000000000000003,
            0.050000000000000003
          ]
        }
      },
      "name": "Tetto01",
      "normalTexture": {
        "index": 3,
        "scale": 1,
        "texCoord": 0
      }
    },
    {
      "doubleSided": true,
      "emissiveFactor": [
        0,
        0,
        0
      ],
      "extensions": {
        "KHR_materials_pbrSpecularGlossiness": {
          "diffuseFactor": [
            1,
            1,
            1,
            1
          ],
          "diffuseTexture": {
            "index": 4,
            "texCoord": 0
          },
          "glossinessFactor": 0.022135943599999999,
          "specularFactor": [
            0.050000000000000003,
            0.050000000000000003,
            0.050000000000000003
          ]
        }
      },
      "name": "wire_154154229",
      "normalTexture": {
        "index": 5,
        "scale": 1,
        "texCoord": 0
      }
    }
  ],
  "meshes": [
    {
      "name": "Alll1_02___Default_0",
      "primitives": [
        {
          "attributes": {
            "NORMAL": 1,
            "POSITION": 0,
            "TANGENT": 2,
            "TEXCOORD_0": 3
          },
          "indices": 4,
          "material": 0,
          "mode": 4
        }
      ]
    },
    {
      "name": "Alll1_Tetto01_0",
      "primitives": [
        {
          "attributes": {
            "NORMAL": 6,
            "POSITION": 5,
            "TANGENT": 7,
            "TEXCOORD_0": 8
          },
          "indices": 9,
          "material": 1,
          "mode": 4
        }
      ]
    },
    {
      "name": "Alll1_wire_154154229_0",
      "primitives": [
        {
          "attributes": {
            "NORMAL": 11,
            "POSITION": 10,
            "TANGENT": 12,
            "TEXCOORD_0": 13
          },
          "indices": 14,
          "material": 2,
          "mode": 4
        }
      ]
    }
  ],
  "nodes": [
    {
      "children": [
        1
      ],
      "name": "RootNode (gltf orientation matrix)",
      "rotation": [
        -0.70710678118654746,
        -0,
        -0,
        0.70710678118654757
      ]
    },
    {
      "children": [
        2
      ],
      "name": "RootNode (model correction matrix)"
    },
    {
      "children": [
        3
      ],
      "matrix": [
        1,
        0,
        0,
        0,
        0,
        0,
        1,
        0,
        0,
        -1,
        0,
        0,
        0,
        0,
        0,
        1
      ],
      "name": "Dondolo Doppio.fbx"
    },
    {
      "children": [
        4
      ],
      "name": "RootNode"
    },
    {
      "children": [
        5
      ],
      "name": "Dondolo Solo A1"
    },
    {
      "children": [
        6,
        7,
        8
      ],
      "name": "Alll1"
    },
    {
      "mesh": 0,
      "name": "Alll1_02___Default_0"
    },
    {
      "mesh": 1,
      "name": "Alll1_Tetto01_0"
    },
    {
      "mesh": 2,
      "name": "Alll1_wire_154154229_0"
    }
  ],
  "samplers": [
    {
      "magFilter": 9729,
      "minFilter": 9987,
      "wrapS": 10497,
      "wrapT": 10497
    }
  ],
  "scene": 0,
  "scenes": [
    {
      "name": "OSG_Scene",
      "nodes": [
        0
      ]
    }
  ],
  "textures": [
    {
      "sampler": 0,
      "source": 0
    },
    {
      "sampler": 0,
      "source": 1
    },
    {
      "sampler": 0,
      "source": 2
    },
    {
      "sampler": 0,
      "source": 3
    },
    {
      "sampler": 0,
      "source": 4
    },
    {
      "sampler": 0,
      "source": 5
    }
  ]
}

