{
  "accessors": [
    {
      "bufferView": 2,
      "componentType": 5126,
      "count": 65532,
      "max": [
        0.8435249924659729,
        0.91871297359466553,
        2.4408791065216064
      ],
      "min": [
        -0.75804799795150757,
        -0.71596002578735352,
        -1.2776279449462891
      ],
      "type": "VEC3"
    },
    {
      "bufferView": 2,
      "byteOffset": 786384,
      "componentType": 5126,
      "count": 65532,
      "max": [
        0.99997097253799438,
        0.99998766183853149,
        0.99994510412216187
      ],
      "min": [
        -0.99999701976776123,
        -0.9992641806602478,
        -0.99999719858169556
      ],
      "type": "VEC3"
    },
    {
      "bufferView": 3,
      "componentType": 5126,
      "count": 65532,
      "max": [
        0.99998241662979126,
        0.99995249509811401,
        0.99990713596343994,
        1
      ],
      "min": [
        -0.99998778104782104,
        -0.99991720914840698,
        -0.99999779462814331,
        -1
      ],
      "type": "VEC4"
    },
    {
      "bufferView": 3,
      "byteOffset": 1048512,
      "componentType": 5126,
      "count": 65532,
      "max": [
        0.74901998043060303,
        0.74901998043060303,
        0.74901998043060303,
        1
      ],
      "min": [
        0.74901998043060303,
        0.74901998043060303,
        0.74901998043060303,
        1
      ],
      "type": "VEC4"
    },
    {
      "bufferView": 1,
      "componentType": 5126,
      "count": 65532,
      "max": [
        0.99457401037216187,
        0.99958997964859009
      ],
      "min": [
        0,
        0
      ],
      "type": "VEC2"
    },
    {
      "bufferView": 0,
      "componentType": 5125,
      "count": 315546,
      "max": [
        65531
      ],
      "min": [
        0
      ],
      "type": "SCALAR"
    },
    {
      "bufferView": 2,
      "byteOffset": 1572768,
      "componentType": 5126,
      "count": 65480,
      "max": [
        0.84579700231552124,
        0.91871297359466553,
        2.4696969985961914
      ],
      "min": [
        -0.75804799795150757,
        -0.80109500885009766,
        -1.2805140018463135
      ],
      "type": "VEC3"
    },
    {
      "bufferView": 2,
      "byteOffset": 2358528,
      "componentType": 5126,
      "count": 65480,
      "max": [
        0.99998682737350464,
        0.99994045495986938,
        0.99996519088745117
      ],
      "min": [
        -0.99997103214263916,
        -0.99995040893554688,
        -0.99999207258224487
      ],
      "type": "VEC3"
    },
    {
      "bufferView": 3,
      "byteOffset": 2097024,
      "componentType": 5126,
      "count": 65480,
      "max": [
        0.99997490644454956,
        0.9999271035194397,
        0.99999850988388062,
        1
      ],
      "min": [
        -0.99999707937240601,
        -0.99999970197677612,
        -0.99998635053634644,
        -1
      ],
      "type": "VEC4"
    },
    {
      "bufferView": 3,
      "byteOffset": 3144704,
      "componentType": 5126,
      "count": 65480,
      "max": [
        0.74901998043060303,
        0.74901998043060303,
        0.74901998043060303,
        1
      ],
      "min": [
        0.74901998043060303,
        0.74901998043060303,
        0.74901998043060303,
        1
      ],
      "type": "VEC4"
    },
    {
      "bufferView": 1,
      "byteOffset": 524256,
      "componentType": 5126,
      "count": 65480,
      "max": [
        0.99584400653839111,
        0.99957102537155151
      ],
      "min": [
        0.0042849997989833355,
        0.0040620001964271069
      ],
      "type": "VEC2"
    },
    {
      "bufferView": 0,
      "byteOffset": 1262184,
      "componentType": 5125,
      "count": 281202,
      "max": [
        65479
      ],
      "min": [
        0
      ],
      "type": "SCALAR"
    },
    {
      "bufferView": 2,
      "byteOffset": 3144288,
      "componentType": 5126,
      "count": 3,
      "max": [
        -0.43085500597953796,
        0.10012499988079071,
        -1.2600389719009399
      ],
      "min": [
        -0.43475499749183655,
        0.098401002585887909,
        -1.2683279514312744
      ],
      "type": "VEC3"
    },
    {
      "bufferView": 2,
      "byteOffset": 3144324,
      "componentType": 5126,
      "count": 3,
      "max": [
        0.38023877143859863,
        0.89298176765441895,
        0.24083627760410309
      ],
      "min": [
        0.38023877143859863,
        0.89298176765441895,
        0.24083627760410309
      ],
      "type": "VEC3"
    },
    {
      "bufferView": 3,
      "byteOffset": 4192384,
      "componentType": 5126,
      "count": 3,
      "max": [
        0,
        0,
        0,
        1
      ],
      "min": [
        0,
        0,
        0,
        1
      ],
      "type": "VEC4"
    },
    {
      "bufferView": 3,
      "byteOffset": 4192432,
      "componentType": 5126,
      "count": 3,
      "max": [
        0.74901998043060303,
        0.74901998043060303,
        0.74901998043060303,
        1
      ],
      "min": [
        0.74901998043060303,
        0.74901998043060303,
        0.74901998043060303,
        1
      ],
      "type": "VEC4"
    },
    {
      "bufferView": 0,
      "byteOffset": 2386992,
      "componentType": 5125,
      "count": 3,
      "max": [
        2
      ],
      "min": [
        0
      ],
      "type": "SCALAR"
    },
    {
      "bufferView": 2,
      "byteOffset": 3144360,
      "componentType": 5126,
      "count": 4,
      "max": [
        0.061213001608848572,
        -0.10238700360059738,
        -1.2093809843063354
      ],
      "min": [
        0.028520999476313591,
        -0.12781299650669098,
        -1.2183200120925903
      ],
      "type": "VEC3"
    },
    {
      "bufferView": 2,
      "byteOffset": 3144408,
      "componentType": 5126,
      "count": 4,
      "max": [
        -0.05784723162651062,
        -0.42906573414802551,
        0.24732965230941772
      ],
      "min": [
        -0.42354279756546021,
        -0.96720314025878906,
        -0.79781836271286011
      ],
      "type": "VEC3"
    },
    {
      "bufferView": 3,
      "byteOffset": 4192480,
      "componentType": 5126,
      "count": 4,
      "max": [
        0,
        0,
        0,
        1
      ],
      "min": [
        0,
        0,
        0,
        1
      ],
      "type": "VEC4"
    },
    {
      "bufferView": 3,
      "byteOffset": 4192544,
      "componentType": 5126,
      "count": 4,
      "max": [
        0.74901998043060303,
        0.74901998043060303,
        0.74901998043060303,
        1
      ],
      "min": [
        0.74901998043060303,
        0.74901998043060303,
        0.74901998043060303,
        1
      ],
      "type": "VEC4"
    },
    {
      "bufferView": 0,
      "byteOffset": 2387004,
      "componentType": 5125,
      "count": 6,
      "max": [
        3
      ],
      "min": [
        0
      ],
      "type": "SCALAR"
    },
    {
      "bufferView": 2,
      "byteOffset": 3144456,
      "componentType": 5126,
      "count": 9,
      "max": [
        0.37549000978469849,
        0.15990500152111053,
        -1.2645479440689087
      ],
      "min": [
        0.36725899577140808,
        0.15247100591659546,
        -1.269536018371582
      ],
      "type": "VEC3"
    },
    {
      "bufferView": 2,
      "byteOffset": 3144564,
      "componentType": 5126,
      "count": 9,
      "max": [
        0.89947861433029175,
        0.9851071834564209,
        0.9777873158454895
      ],
      "min": [
        -0.098890483379364014,
        0,
        -0.09367554634809494
      ],
      "type": "VEC3"
    },
    {
      "bufferView": 3,
      "byteOffset": 4192608,
      "componentType": 5126,
      "count": 9,
      "max": [
        0,
        0,
        0,
        1
      ],
      "min": [
        0,
        0,
        0,
        1
      ],
      "type": "VEC4"
    },
    {
      "bufferView": 3,
      "byteOffset": 4192752,
      "componentType": 5126,
      "count": 9,
      "max": [
        0.74901998043060303,
        0.74901998043060303,
        0.74901998043060303,
        1
      ],
      "min": [
        0.74901998043060303,
        0.74901998043060303,
        0.74901998043060303,
        1
      ],
      "type": "VEC4"
    },
    {
      "bufferView": 0,
      "byteOffset": 2387028,
      "componentType": 5125,
      "count": 9,
      "max": [
        8
      ],
      "min": [
        1
      ],
      "type": "SCALAR"
    },
    {
      "bufferView": 2,
      "byteOffset": 3144672,
      "componentType": 5126,
      "count": 6,
      "max": [
        -0.46586200594902039,
        -0.05061199888586998,
        -1.2712630033493042
      ],
      "min": [
        -0.46872299909591675,
        -0.060857001692056656,
        -1.2766289710998535
      ],
      "type": "VEC3"
    },
    {
      "bufferView": 2,
      "byteOffset": 3144744,
      "componentType": 5126,
      "count": 6,
      "max": [
        -0.9096636176109314,
        0.38030964136123657,
        0.16696357727050781
      ],
      "min": [
        -0.99207592010498047,
        0.074873350560665131,
        -0.19707368314266205
      ],
      "type": "VEC3"
    },
    {
      "bufferView": 3,
      "byteOffset": 4192896,
      "componentType": 5126,
      "count": 6,
      "max": [
        0,
        0,
        0,
        1
      ],
      "min": [
        0,
        0,
        0,
        1
      ],
      "type": "VEC4"
    },
    {
      "bufferView": 3,
      "byteOffset": 4192992,
      "componentType": 5126,
      "count": 6,
      "max": [
        0.74901998043060303,
        0.74901998043060303,
        0.74901998043060303,
        1
      ],
      "min": [
        0.74901998043060303,
        0.74901998043060303,
        0.74901998043060303,
        1
      ],
      "type": "VEC4"
    },
    {
      "bufferView": 0,
      "byteOffset": 2387064,
      "componentType": 5125,
      "count": 12,
      "max": [
        5
      ],
      "min": [
        0
      ],
      "type": "SCALAR"
    },
    {
      "bufferView": 2,
      "byteOffset": 3144816,
      "componentType": 5126,
      "count": 5,
      "max": [
        0.35720899701118469,
        0.18472899496555328,
        -1.2656509876251221
      ],
      "min": [
        0.34352299571037292,
        0.16755400598049164,
        -1.2698880434036255
      ],
      "type": "VEC3"
    },
    {
      "bufferView": 2,
      "byteOffset": 3144876,
      "componentType": 5126,
      "count": 5,
      "max": [
        -0.053530160337686539,
        -0.4748070240020752,
        0.87846052646636963
      ],
      "min": [
        -0.7923966646194458,
        -0.66805362701416016,
        0.096358515322208405
      ],
      "type": "VEC3"
    },
    {
      "bufferView": 3,
      "byteOffset": 4193088,
      "componentType": 5126,
      "count": 5,
      "max": [
        0,
        0,
        0,
        1
      ],
      "min": [
        0,
        0,
        0,
        1
      ],
      "type": "VEC4"
    },
    {
      "bufferView": 3,
      "byteOffset": 4193168,
      "componentType": 5126,
      "count": 5,
      "max": [
        0.74901998043060303,
        0.74901998043060303,
        0.74901998043060303,
        1
      ],
      "min": [
        0.74901998043060303,
        0.74901998043060303,
        0.74901998043060303,
        1
      ],
      "type": "VEC4"
    },
    {
      "bufferView": 0,
      "byteOffset": 2387112,
      "componentType": 5125,
      "count": 9,
      "max": [
        4
      ],
      "min": [
        0
      ],
      "type": "SCALAR"
    }
  ],
  "asset": {
    "extras": {
      "author": "Seth Berrier (https://sketchfab.com/berriers)",
      "license": "CC-BY-4.0 (http://creativecommons.org/licenses/by/4.0/)",
      "source": "https://sketchfab.com/models/e2d712be51ea436588651802e51340c6",
      "title": "Mesh Garden Gnome"
    },
    "generator": "Sketchfab-3.29.3",
    "version": "2.0"
  },
  "bufferViews": [
    {
      "buffer": 0,
      "byteLength": 2387148,
      "byteOffset": 0,
      "name": "floatBufferViews",
      "target": 34963
    },
    {
      "buffer": 0,
      "byteLength": 1048096,
      "byteOffset": 2387148,
      "byteStride": 8,
      "name": "floatBufferViews",
      "target": 34962
    },
    {
      "buffer": 0,
      "byteLength": 3144936,
      "byteOffset": 3435244,
      "byteStride": 12,
      "name": "floatBufferViews",
      "target": 34962
    },
    {
      "buffer": 0,
      "byteLength": 4193248,
      "byteOffset": 6580180,
      "byteStride": 16,
      "name": "floatBufferViews",
      "target": 34962
    }
  ],
  "buffers": [
    {
      "byteLength": 10773428,
      "uri": "scene.bin"
    }
  ],
  "extensionsUsed": [
    "KHR_materials_unlit"
  ],
  "images": [
    {
      "uri": "textures/material_0_baseColor.png"
    }
  ],
  "materials": [
    {
      "doubleSided": true,
      "emissiveFactor": [
        0,
        0,
        0
      ],
      "extensions": {
        "KHR_materials_unlit": {}
      },
      "name": "material_0",
      "pbrMetallicRoughness": {
        "baseColorFactor": [
          1,
          1,
          1,
          1
        ],
        "baseColorTexture": {
          "index": 0,
          "texCoord": 0
        },
        "metallicFactor": 0,
        "roughnessFactor": 1
      }
    },
    {
      "doubleSided": true,
      "emissiveFactor": [
        0,
        0,
        0
      ],
      "extensions": {
        "KHR_materials_unlit": {}
      },
      "name": "material_1",
      "pbrMetallicRoughness": {
        "baseColorFactor": [
          0.047058999999999997,
          0.101961,
          0.031372999999999998,
          1
        ],
        "metallicFactor": 0,
        "roughnessFactor": 1
      }
    },
    {
      "alphaMode": "BLEND",
      "doubleSided": true,
      "emissiveFactor": [
        0,
        0,
        0
      ],
      "extensions": {
        "KHR_materials_unlit": {}
      },
      "name": "material_2",
      "pbrMetallicRoughness": {
        "baseColorFactor": [
          0.87451000000000001,
          0.93725499999999995,
          0.78431399999999996,
          0.87058800000000003
        ],
        "metallicFactor": 0,
        "roughnessFactor": 1
      }
    },
    {
      "alphaMode": "BLEND",
      "doubleSided": true,
      "emissiveFactor": [
        0,
        0,
        0
      ],
      "extensions": {
        "KHR_materials_unlit": {}
      },
      "name": "material_3",
      "pbrMetallicRoughness": {
        "baseColorFactor": [
          0.74902000000000002,
          0.92941200000000002,
          0.78431399999999996,
          0.87058800000000003
        ],
        "metallicFactor": 0,
        "roughnessFactor": 1
      }
    },
    {
      "alphaMode": "BLEND",
      "doubleSided": true,
      "emissiveFactor": [
        0,
        0,
        0
      ],
      "extensions": {
        "KHR_materials_unlit": {}
      },
      "name": "material_4",
      "pbrMetallicRoughness": {
        "baseColorFactor": [
          0.62745099999999998,
          0.92941200000000002,
          0.78431399999999996,
          0.87058800000000003
        ],
        "metallicFactor": 0,
        "roughnessFactor": 1
      }
    },
    {
      "doubleSided": true,
      "emissiveFactor": [
        0,
        0,
        0
      ],
      "extensions": {
        "KHR_materials_unlit": {}
      },
      "name": "material_5",
      "pbrMetallicRoughness": {
        "baseColorFactor": [
          0.16470599999999999,
          0.105882,
          0.035293999999999999,
          1
        ],
        "metallicFactor": 0,
        "roughnessFactor": 1
      }
    }
  ],
  "meshes": [
    {
      "primitives": [
        {
          "attributes": {
            "COLOR_0": 3,
            "NORMAL": 1,
            "POSITION": 0,
            "TANGENT": 2,
            "TEXCOORD_0": 4
          },
          "indices": 5,
          "material": 0,
          "mode": 4
        }
      ]
    },
    {
      "primitives": [
        {
          "attributes": {
            "COLOR_0": 9,
            "NORMAL": 7,
            "POSITION": 6,
            "TANGENT": 8,
            "TEXCOORD_0": 10
          },
          "indices": 11,
          "material": 0,
          "mode": 4
        }
      ]
    },
    {
      "primitives": [
        {
          "attributes": {
            "COLOR_0": 15,
            "NORMAL": 13,
            "POSITION": 12,
            "TANGENT": 14
          },
          "indices": 16,
          "material": 1,
          "mode": 4
        }
      ]
    },
    {
      "primitives": [
        {
          "attributes": {
            "COLOR_0": 20,
            "NORMAL": 18,
            "POSITION": 17,
            "TANGENT": 19
          },
          "indices": 21,
          "material": 2,
          "mode": 4
        }
      ]
    },
    {
      "primitives": [
        {
          "attributes": {
            "COLOR_0": 25,
            "NORMAL": 23,
            "POSITION": 22,
            "TANGENT": 24
          },
          "indices": 26,
          "material": 3,
          "mode": 4
        }
      ]
    },
    {
      "primitives": [
        {
          "attributes": {
            "COLOR_0": 30,
            "NORMAL": 28,
            "POSITION": 27,
            "TANGENT": 29
          },
          "indices": 31,
          "material": 4,
          "mode": 4
        }
      ]
    },
    {
      "primitives": [
        {
          "attributes": {
            "COLOR_0": 35,
            "NORMAL": 33,
            "POSITION": 32,
            "TANGENT": 34
          },
          "indices": 36,
          "material": 5,
          "mode": 4
        }
      ]
    }
  ],
  "nodes": [
    {
      "children": [
        1
      ],
      "name": "RootNode (gltf orientation matrix)",
      "rotation": [
        -0.70710678118654746,
        -0,
        -0,
        0.70710678118654757
      ]
    },
    {
      "children": [
        2
      ],
      "name": "RootNode (model correction matrix)"
    },
    {
      "children": [
        3,
        4,
        5,
        6,
        7,
        8,
        9
      ],
      "name": "Gnome-Mesh.obj.cleaner"
    },
    {
      "mesh": 0,
      "name": ""
    },
    {
      "mesh": 1,
      "name": ""
    },
    {
      "mesh": 2,
      "name": ""
    },
    {
      "mesh": 3,
      "name": ""
    },
    {
      "mesh": 4,
      "name": ""
    },
    {
      "mesh": 5,
      "name": ""
    },
    {
      "mesh": 6,
      "name": ""
    }
  ],
  "samplers": [
    {
      "magFilter": 9729,
      "minFilter": 9987,
      "wrapS": 10497,
      "wrapT": 10497
    }
  ],
  "scene": 0,
  "scenes": [
    {
      "name": "OSG_Scene",
      "nodes": [
        0
      ]
    }
  ],
  "textures": [
    {
      "sampler": 0,
      "source": 0
    }
  ]
}

