{
  "accessors": [
    {
      "bufferView": 2,
      "componentType": 5126,
      "count": 30616,
      "max": [
        42.576572418212891,
        146.91580200195312,
        49.873287200927734
      ],
      "min": [
        -43.652008056640625,
        -0.033954814076423645,
        -39.962852478027344
      ],
      "type": "VEC3"
    },
    {
      "bufferView": 2,
      "byteOffset": 367392,
      "componentType": 5126,
      "count": 30616,
      "max": [
        0.9998047947883606,
        0.99834984540939331,
        0.9999815821647644
      ],
      "min": [
        -0.99978619813919067,
        -0.81316971778869629,
        -0.99998992681503296
      ],
      "type": "VEC3"
    },
    {
      "bufferView": 3,
      "componentType": 5126,
      "count": 30616,
      "max": [
        0.99994724988937378,
        0.82349014282226562,
        0.99943101406097412,
        -1
      ],
      "min": [
        -0.999947190284729,
        -0.82349032163619995,
        -0.99943101406097412,
        -1
      ],
      "type": "VEC4"
    },
    {
      "bufferView": 1,
      "componentType": 5126,
      "count": 30616,
      "max": [
        -0,
        2.0099999904632568
      ],
      "min": [
        -1,
        1
      ],
      "type": "VEC2"
    },
    {
      "bufferView": 0,
      "componentType": 5125,
      "count": 90450,
      "max": [
        30615
      ],
      "min": [
        0
      ],
      "type": "SCALAR"
    },
    {
      "bufferView": 2,
      "byteOffset": 734784,
      "componentType": 5126,
      "count": 65532,
      "max": [
        44.797935485839844,
        99.299850463867188,
        51.965972900390625
      ],
      "min": [
        -45.950424194335938,
        34.241352081298828,
        -39.775379180908203
      ],
      "type": "VEC3"
    },
    {
      "bufferView": 2,
      "byteOffset": 1521168,
      "componentType": 5126,
      "count": 65532,
      "max": [
        0.99995750188827515,
        0.99994462728500366,
        0.9999852180480957
      ],
      "min": [
        -0.99993836879730225,
        -0.99995929002761841,
        -0.99991542100906372
      ],
      "type": "VEC3"
    },
    {
      "bufferView": 3,
      "byteOffset": 489856,
      "componentType": 5126,
      "count": 65532,
      "max": [
        0.99998390674591064,
        0.98921257257461548,
        0.99999672174453735,
        1
      ],
      "min": [
        -0.99989193677902222,
        -0.99994838237762451,
        -0.99998438358306885,
        -1
      ],
      "type": "VEC4"
    },
    {
      "bufferView": 1,
      "byteOffset": 244928,
      "componentType": 5126,
      "count": 65532,
      "max": [
        -0,
        2
      ],
      "min": [
        -1,
        1
      ],
      "type": "VEC2"
    },
    {
      "bufferView": 0,
      "byteOffset": 361800,
      "componentType": 5125,
      "count": 252489,
      "max": [
        65531
      ],
      "min": [
        0
      ],
      "type": "SCALAR"
    },
    {
      "bufferView": 2,
      "byteOffset": 2307552,
      "componentType": 5126,
      "count": 65532,
      "max": [
        30.957612991333008,
        148.9827880859375,
        15.51816463470459
      ],
      "min": [
        -12.299676895141602,
        64.148666381835938,
        -39.609519958496094
      ],
      "type": "VEC3"
    },
    {
      "bufferView": 2,
      "byteOffset": 3093936,
      "componentType": 5126,
      "count": 65532,
      "max": [
        0.99994266033172607,
        0.99955791234970093,
        0.99998939037322998
      ],
      "min": [
        -0.9999854564666748,
        -0.99999409914016724,
        -0.99998927116394043
      ],
      "type": "VEC3"
    },
    {
      "bufferView": 3,
      "byteOffset": 1538368,
      "componentType": 5126,
      "count": 65532,
      "max": [
        0.99997979402542114,
        0.99154531955718994,
        0.99999016523361206,
        1
      ],
      "min": [
        -0.99997687339782715,
        -0.99971479177474976,
        -0.99999254941940308,
        -1
      ],
      "type": "VEC4"
    },
    {
      "bufferView": 1,
      "byteOffset": 769184,
      "componentType": 5126,
      "count": 65532,
      "max": [
        -0,
        2
      ],
      "min": [
        -1,
        1
      ],
      "type": "VEC2"
    },
    {
      "bufferView": 0,
      "byteOffset": 1371756,
      "componentType": 5125,
      "count": 251787,
      "max": [
        65531
      ],
      "min": [
        0
      ],
      "type": "SCALAR"
    },
    {
      "bufferView": 2,
      "byteOffset": 3880320,
      "componentType": 5126,
      "count": 65532,
      "max": [
        28.949508666992188,
        141.75889587402344,
        21.832645416259766
      ],
      "min": [
        -27.969223022460938,
        57.466053009033203,
        -28.872501373291016
      ],
      "type": "VEC3"
    },
    {
      "bufferView": 2,
      "byteOffset": 4666704,
      "componentType": 5126,
      "count": 65532,
      "max": [
        0.99997800588607788,
        0.99999862909317017,
        0.99992525577545166
      ],
      "min": [
        -0.99999737739562988,
        -0.99992400407791138,
        -0.99994754791259766
      ],
      "type": "VEC3"
    },
    {
      "bufferView": 3,
      "byteOffset": 2586880,
      "componentType": 5126,
      "count": 65532,
      "max": [
        0.99979358911514282,
        0.95638221502304077,
        0.99999934434890747,
        1
      ],
      "min": [
        -0.99982041120529175,
        -0.99996906518936157,
        -0.99970883131027222,
        -1
      ],
      "type": "VEC4"
    },
    {
      "bufferView": 1,
      "byteOffset": 1293440,
      "componentType": 5126,
      "count": 65532,
      "max": [
        -0,
        2
      ],
      "min": [
        -1,
        1
      ],
      "type": "VEC2"
    },
    {
      "bufferView": 0,
      "byteOffset": 2378904,
      "componentType": 5125,
      "count": 252621,
      "max": [
        65531
      ],
      "min": [
        0
      ],
      "type": "SCALAR"
    },
    {
      "bufferView": 2,
      "byteOffset": 5453088,
      "componentType": 5126,
      "count": 65532,
      "max": [
        29.191415786743164,
        132.06718444824219,
        29.492551803588867
      ],
      "min": [
        -28.995222091674805,
        54.465309143066406,
        -15.589779853820801
      ],
      "type": "VEC3"
    },
    {
      "bufferView": 2,
      "byteOffset": 6239472,
      "componentType": 5126,
      "count": 65532,
      "max": [
        0.99993324279785156,
        0.99993908405303955,
        0.99998980760574341
      ],
      "min": [
        -0.9999735951423645,
        -0.9999728798866272,
        -0.99970084428787231
      ],
      "type": "VEC3"
    },
    {
      "bufferView": 3,
      "byteOffset": 3635392,
      "componentType": 5126,
      "count": 65532,
      "max": [
        0.99988824129104614,
        0.94730079174041748,
        0.99999672174453735,
        1
      ],
      "min": [
        -0.99999386072158813,
        -0.99987739324569702,
        -0.99998992681503296,
        -1
      ],
      "type": "VEC4"
    },
    {
      "bufferView": 1,
      "byteOffset": 1817696,
      "componentType": 5126,
      "count": 65532,
      "max": [
        -0,
        2
      ],
      "min": [
        -1,
        1
      ],
      "type": "VEC2"
    },
    {
      "bufferView": 0,
      "byteOffset": 3389388,
      "componentType": 5125,
      "count": 252771,
      "max": [
        65531
      ],
      "min": [
        0
      ],
      "type": "SCALAR"
    },
    {
      "bufferView": 2,
      "byteOffset": 7025856,
      "componentType": 5126,
      "count": 65532,
      "max": [
        39.086685180664062,
        124.288818359375,
        27.378030776977539
      ],
      "min": [
        -32.190174102783203,
        48.628494262695312,
        -39.570022583007812
      ],
      "type": "VEC3"
    },
    {
      "bufferView": 2,
      "byteOffset": 7812240,
      "componentType": 5126,
      "count": 65532,
      "max": [
        0.99998152256011963,
        0.99999892711639404,
        0.99997961521148682
      ],
      "min": [
        -0.99993854761123657,
        -0.99992793798446655,
        -0.99987077713012695
      ],
      "type": "VEC3"
    },
    {
      "bufferView": 3,
      "byteOffset": 4683904,
      "componentType": 5126,
      "count": 65532,
      "max": [
        0.99969059228897095,
        0.93656575679779053,
        0.99990928173065186,
        1
      ],
      "min": [
        -0.99999582767486572,
        -0.99973595142364502,
        -0.99973106384277344,
        -1
      ],
      "type": "VEC4"
    },
    {
      "bufferView": 1,
      "byteOffset": 2341952,
      "componentType": 5126,
      "count": 65532,
      "max": [
        -0,
        2
      ],
      "min": [
        -1,
        1
      ],
      "type": "VEC2"
    },
    {
      "bufferView": 0,
      "byteOffset": 4400472,
      "componentType": 5125,
      "count": 252426,
      "max": [
        65531
      ],
      "min": [
        0
      ],
      "type": "SCALAR"
    },
    {
      "bufferView": 2,
      "byteOffset": 8598624,
      "componentType": 5126,
      "count": 65532,
      "max": [
        32.968307495117188,
        114.96414947509766,
        37.023548126220703
      ],
      "min": [
        -42.567409515380859,
        42.810707092285156,
        -32.132312774658203
      ],
      "type": "VEC3"
    },
    {
      "bufferView": 2,
      "byteOffset": 9385008,
      "componentType": 5126,
      "count": 65532,
      "max": [
        0.99996596574783325,
        0.99996381998062134,
        0.99997544288635254
      ],
      "min": [
        -0.99997073411941528,
        -0.99993246793746948,
        -0.99994373321533203
      ],
      "type": "VEC3"
    },
    {
      "bufferView": 3,
      "byteOffset": 5732416,
      "componentType": 5126,
      "count": 65532,
      "max": [
        0.99995863437652588,
        0.95235037803649902,
        0.99996680021286011,
        1
      ],
      "min": [
        -0.99997550249099731,
        -0.99993056058883667,
        -0.99986958503723145,
        -1
      ],
      "type": "VEC4"
    },
    {
      "bufferView": 1,
      "byteOffset": 2866208,
      "componentType": 5126,
      "count": 65532,
      "max": [
        -0,
        2
      ],
      "min": [
        -1,
        1
      ],
      "type": "VEC2"
    },
    {
      "bufferView": 0,
      "byteOffset": 5410176,
      "componentType": 5125,
      "count": 252444,
      "max": [
        65531
      ],
      "min": [
        0
      ],
      "type": "SCALAR"
    },
    {
      "bufferView": 2,
      "byteOffset": 10171392,
      "componentType": 5126,
      "count": 65532,
      "max": [
        44.036960601806641,
        146.32484436035156,
        50.879592895507812
      ],
      "min": [
        -45.040267944335938,
        34.241352081298828,
        -42.29486083984375
      ],
      "type": "VEC3"
    },
    {
      "bufferView": 2,
      "byteOffset": 10957776,
      "componentType": 5126,
      "count": 65532,
      "max": [
        0.99994778633117676,
        0.9999690055847168,
        0.9999922513961792
      ],
      "min": [
        -0.99999386072158813,
        -0.99983394145965576,
        -0.99993091821670532
      ],
      "type": "VEC3"
    },
    {
      "bufferView": 3,
      "byteOffset": 6780928,
      "componentType": 5126,
      "count": 65532,
      "max": [
        0.9997103214263916,
        0.97490966320037842,
        0.99993503093719482,
        1
      ],
      "min": [
        -0.99997353553771973,
        -0.99993079900741577,
        -0.99995464086532593,
        -1
      ],
      "type": "VEC4"
    },
    {
      "bufferView": 1,
      "byteOffset": 3390464,
      "componentType": 5126,
      "count": 65532,
      "max": [
        -0,
        2
      ],
      "min": [
        -1,
        1
      ],
      "type": "VEC2"
    },
    {
      "bufferView": 0,
      "byteOffset": 6419952,
      "componentType": 5125,
      "count": 248808,
      "max": [
        65531
      ],
      "min": [
        0
      ],
      "type": "SCALAR"
    },
    {
      "bufferView": 2,
      "byteOffset": 11744160,
      "componentType": 5126,
      "count": 10436,
      "max": [
        39.086685180664062,
        117.71360778808594,
        37.180294036865234
      ],
      "min": [
        -41.846416473388672,
        40.025093078613281,
        -42.272972106933594
      ],
      "type": "VEC3"
    },
    {
      "bufferView": 2,
      "byteOffset": 11869392,
      "componentType": 5126,
      "count": 10436,
      "max": [
        0.99973547458648682,
        0.99984300136566162,
        0.99973767995834351
      ],
      "min": [
        -0.9995342493057251,
        -0.97264719009399414,
        -0.9999697208404541
      ],
      "type": "VEC3"
    },
    {
      "bufferView": 3,
      "byteOffset": 7829440,
      "componentType": 5126,
      "count": 10436,
      "max": [
        0.99997103214263916,
        0.93923753499984741,
        0.9998510479927063,
        1
      ],
      "min": [
        -0.99941271543502808,
        -0.99855363368988037,
        -0.99973678588867188,
        -1
      ],
      "type": "VEC4"
    },
    {
      "bufferView": 1,
      "byteOffset": 3914720,
      "componentType": 5126,
      "count": 10436,
      "max": [
        -0,
        2
      ],
      "min": [
        -1,
        1
      ],
      "type": "VEC2"
    },
    {
      "bufferView": 0,
      "byteOffset": 7415184,
      "componentType": 5125,
      "count": 38454,
      "max": [
        10435
      ],
      "min": [
        0
      ],
      "type": "SCALAR"
    },
    {
      "bufferView": 2,
      "byteOffset": 11994624,
      "componentType": 5126,
      "count": 5775,
      "max": [
        65.004074096679688,
        80.662361145019531,
        69.12652587890625
      ],
      "min": [
        -60.401844024658203,
        -0.092665538191795349,
        -60.8961181640625
      ],
      "type": "VEC3"
    },
    {
      "bufferView": 2,
      "byteOffset": 12063924,
      "componentType": 5126,
      "count": 5775,
      "max": [
        0.999900221824646,
        0.99985998868942261,
        0.99974703788757324
      ],
      "min": [
        -0.99962282180786133,
        -0.36086905002593994,
        -0.99980151653289795
      ],
      "type": "VEC3"
    },
    {
      "bufferView": 3,
      "byteOffset": 7996416,
      "componentType": 5126,
      "count": 5775,
      "max": [
        0.99997681379318237,
        0.54670774936676025,
        0.99997448921203613,
        -1
      ],
      "min": [
        -0.99989593029022217,
        -0.47544011473655701,
        -0.99997937679290771,
        -1
      ],
      "type": "VEC4"
    },
    {
      "bufferView": 1,
      "byteOffset": 3998208,
      "componentType": 5126,
      "count": 5775,
      "max": [
        -0,
        2
      ],
      "min": [
        -1,
        1
      ],
      "type": "VEC2"
    },
    {
      "bufferView": 0,
      "byteOffset": 7569000,
      "componentType": 5125,
      "count": 21000,
      "max": [
        5774
      ],
      "min": [
        0
      ],
      "type": "SCALAR"
    }
  ],
  "asset": {
    "extras": {
      "author": "tojamerlin (https://sketchfab.com/tojamerlin)",
      "license": "CC-BY-4.0 (http://creativecommons.org/licenses/by/4.0/)",
      "source": "https://sketchfab.com/models/817b0b067f8942c1b8976c338d59982e",
      "title": "Lilyturf"
    },
    "generator": "Sketchfab-3.31.2",
    "version": "2.0"
  },
  "bufferViews": [
    {
      "buffer": 0,
      "byteLength": 7653000,
      "byteOffset": 0,
      "name": "floatBufferViews",
      "target": 34963
    },
    {
      "buffer": 0,
      "byteLength": 4044408,
      "byteOffset": 7653000,
      "byteStride": 8,
      "name": "floatBufferViews",
      "target": 34962
    },
    {
      "buffer": 0,
      "byteLength": 12133224,
      "byteOffset": 11697408,
      "byteStride": 12,
      "name": "floatBufferViews",
      "target": 34962
    },
    {
      "buffer": 0,
      "byteLength": 8088816,
      "byteOffset": 23830632,
      "byteStride": 16,
      "name": "floatBufferViews",
      "target": 34962
    }
  ],
  "buffers": [
    {
      "byteLength": 31919448,
      "uri": "scene.bin"
    }
  ],
  "images": [
    {
      "uri": "textures/Grass_baseColor.png"
    },
    {
      "uri": "textures/Leaf_baseColor.png"
    },
    {
      "uri": "textures/Stem_baseColor.png"
    }
  ],
  "materials": [
    {
      "doubleSided": true,
      "emissiveFactor": [
        0,
        0,
        0
      ],
      "name": "Stem",
      "pbrMetallicRoughness": {
        "baseColorFactor": [
          0.45927085880000001,
          0.45927085880000001,
          0.45927085880000001,
          1
        ],
        "baseColorTexture": {
          "index": 2,
          "texCoord": 0
        },
        "metallicFactor": 0,
        "roughnessFactor": 0.59999999999999998
      }
    },
    {
      "doubleSided": true,
      "emissiveFactor": [
        0,
        0,
        0
      ],
      "name": "Leaf",
      "pbrMetallicRoughness": {
        "baseColorFactor": [
          0.4780208588,
          0.4780208588,
          0.4780208588,
          1
        ],
        "baseColorTexture": {
          "index": 1,
          "texCoord": 0
        },
        "metallicFactor": 0,
        "roughnessFactor": 0.59999999999999998
      }
    },
    {
      "doubleSided": true,
      "emissiveFactor": [
        0,
        0,
        0
      ],
      "name": "Grass",
      "pbrMetallicRoughness": {
        "baseColorFactor": [
          0.45927085880000001,
          0.45927085880000001,
          0.45927085880000001,
          1
        ],
        "baseColorTexture": {
          "index": 0,
          "texCoord": 0
        },
        "metallicFactor": 0,
        "roughnessFactor": 0.59999999999999998
      }
    }
  ],
  "meshes": [
    {
      "name": "lilyturf_Stem_0",
      "primitives": [
        {
          "attributes": {
            "NORMAL": 1,
            "POSITION": 0,
            "TANGENT": 2,
            "TEXCOORD_0": 3
          },
          "indices": 4,
          "material": 0,
          "mode": 4
        }
      ]
    },
    {
      "name": "lilyturf_Leaf_0",
      "primitives": [
        {
          "attributes": {
            "NORMAL": 6,
            "POSITION": 5,
            "TANGENT": 7,
            "TEXCOORD_0": 8
          },
          "indices": 9,
          "material": 1,
          "mode": 4
        }
      ]
    },
    {
      "name": "lilyturf_Leaf_0",
      "primitives": [
        {
          "attributes": {
            "NORMAL": 11,
            "POSITION": 10,
            "TANGENT": 12,
            "TEXCOORD_0": 13
          },
          "indices": 14,
          "material": 1,
          "mode": 4
        }
      ]
    },
    {
      "name": "lilyturf_Leaf_0",
      "primitives": [
        {
          "attributes": {
            "NORMAL": 16,
            "POSITION": 15,
            "TANGENT": 17,
            "TEXCOORD_0": 18
          },
          "indices": 19,
          "material": 1,
          "mode": 4
        }
      ]
    },
    {
      "name": "lilyturf_Leaf_0",
      "primitives": [
        {
          "attributes": {
            "NORMAL": 21,
            "POSITION": 20,
            "TANGENT": 22,
            "TEXCOORD_0": 23
          },
          "indices": 24,
          "material": 1,
          "mode": 4
        }
      ]
    },
    {
      "name": "lilyturf_Leaf_0",
      "primitives": [
        {
          "attributes": {
            "NORMAL": 26,
            "POSITION": 25,
            "TANGENT": 27,
            "TEXCOORD_0": 28
          },
          "indices": 29,
          "material": 1,
          "mode": 4
        }
      ]
    },
    {
      "name": "lilyturf_Leaf_0",
      "primitives": [
        {
          "attributes": {
            "NORMAL": 31,
            "POSITION": 30,
            "TANGENT": 32,
            "TEXCOORD_0": 33
          },
          "indices": 34,
          "material": 1,
          "mode": 4
        }
      ]
    },
    {
      "name": "lilyturf_Leaf_0",
      "primitives": [
        {
          "attributes": {
            "NORMAL": 36,
            "POSITION": 35,
            "TANGENT": 37,
            "TEXCOORD_0": 38
          },
          "indices": 39,
          "material": 1,
          "mode": 4
        }
      ]
    },
    {
      "name": "lilyturf_Leaf_0",
      "primitives": [
        {
          "attributes": {
            "NORMAL": 41,
            "POSITION": 40,
            "TANGENT": 42,
            "TEXCOORD_0": 43
          },
          "indices": 44,
          "material": 1,
          "mode": 4
        }
      ]
    },
    {
      "name": "grass_Grass_0",
      "primitives": [
        {
          "attributes": {
            "NORMAL": 46,
            "POSITION": 45,
            "TANGENT": 47,
            "TEXCOORD_0": 48
          },
          "indices": 49,
          "material": 2,
          "mode": 4
        }
      ]
    }
  ],
  "nodes": [
    {
      "children": [
        1
      ],
      "name": "RootNode (gltf orientation matrix)",
      "rotation": [
        -0.70710678118654746,
        -0,
        -0,
        0.70710678118654757
      ]
    },
    {
      "children": [
        2
      ],
      "name": "RootNode (model correction matrix)"
    },
    {
      "children": [
        3
      ],
      "matrix": [
        1,
        0,
        0,
        0,
        0,
        0,
        1,
        0,
        0,
        -1,
        0,
        0,
        0,
        0,
        0,
        1
      ],
      "name": "58bcff38863a4d559b5c839ebdee3e21.fbx"
    },
    {
      "children": [
        4
      ],
      "name": "RootNode"
    },
    {
      "children": [
        5,
        6,
        7,
        8,
        9,
        10,
        11,
        12,
        13,
        14
      ],
      "matrix": [
        1,
        0,
        0,
        0,
        0,
        1,
        0,
        0,
        0,
        0,
        1,
        0,
        5.7200551964342594e-05,
        0.00019283138681203127,
        0,
        1
      ],
      "name": "lilyturf"
    },
    {
      "mesh": 0,
      "name": "lilyturf_Stem_0"
    },
    {
      "mesh": 1,
      "name": "lilyturf_Leaf_0"
    },
    {
      "mesh": 2,
      "name": "lilyturf_Leaf_0"
    },
    {
      "mesh": 3,
      "name": "lilyturf_Leaf_0"
    },
    {
      "mesh": 4,
      "name": "lilyturf_Leaf_0"
    },
    {
      "mesh": 5,
      "name": "lilyturf_Leaf_0"
    },
    {
      "mesh": 6,
      "name": "lilyturf_Leaf_0"
    },
    {
      "mesh": 7,
      "name": "lilyturf_Leaf_0"
    },
    {
      "mesh": 8,
      "name": "lilyturf_Leaf_0"
    },
    {
      "children": [
        15
      ],
      "matrix": [
        1,
        0,
        0,
        0,
        0,
        1,
        0,
        0,
        0,
        0,
        1,
        0,
        -5.7200551964342594e-05,
        -0.00019283138681203127,
        0,
        1
      ],
      "name": "grass"
    },
    {
      "mesh": 9,
      "name": "grass_Grass_0"
    }
  ],
  "samplers": [
    {
      "magFilter": 9729,
      "minFilter": 9987,
      "wrapS": 10497,
      "wrapT": 10497
    }
  ],
  "scene": 0,
  "scenes": [
    {
      "name": "OSG_Scene",
      "nodes": [
        0
      ]
    }
  ],
  "textures": [
    {
      "sampler": 0,
      "source": 0
    },
    {
      "sampler": 0,
      "source": 1
    },
    {
      "sampler": 0,
      "source": 2
    }
  ]
}

